<mxfile host="app.diagrams.net" modified="2023-06-15T13:11:20.126Z" agent="Mozilla/5.0 (Windows NT 10.0; Win64; x64) AppleWebKit/537.36 (KHTML, like Gecko) Chrome/114.0.0.0 Safari/537.36" version="21.1.9" etag="egrm9zTOdLoAtdBeDXIk" type="github">
  <diagram name="Page-1" id="CGnczLtdTabWDdUMyMJx">
    <mxGraphModel>
      <root>
        <mxCell id="0" />
        <mxCell id="1" parent="0" />
      </root>
    </mxGraphModel>
  </diagram>
</mxfile>
